<svg width="144" height="48" viewBox="0 0 144 48" fill="none" xmlns="http://www.w3.org/2000/svg">
<rect width="144" height="48" rx="5" fill="#2D2D2D"/>
<g clip-path="url(#clip0_2904_32)">
<path d="M32.4989 12C31.2194 12.0885 29.7239 12.9075 28.8525 13.974C28.0575 14.9415 27.4035 16.3785 27.6585 17.775C29.0565 17.8185 30.5009 16.98 31.3379 15.8955C32.1209 14.886 32.7134 13.458 32.4989 12Z" fill="white"/>
<path d="M37.5554 20.0519C36.3269 18.5114 34.6004 17.6174 32.9699 17.6174C30.8174 17.6174 29.9069 18.6479 28.4114 18.6479C26.8694 18.6479 25.6979 17.6204 23.8364 17.6204C22.0079 17.6204 20.061 18.7379 18.8265 20.6489C17.091 23.3399 17.388 28.3994 20.2005 32.7088C21.2069 34.2508 22.5509 35.9848 24.3089 35.9998C25.8734 36.0148 26.3144 34.9963 28.4339 34.9858C30.5534 34.9738 30.9554 36.0133 32.5169 35.9968C34.2764 35.9833 35.6939 34.0618 36.7004 32.5198C37.4219 31.4144 37.6904 30.8579 38.2498 29.6099C34.1804 28.0604 33.5279 22.2734 37.5554 20.0519Z" fill="white"/>
</g>
<path d="M50.96 14H48.65V21H50.96C53.09 21 54.44 19.84 54.44 17.5C54.44 15.21 53.11 14 50.96 14ZM49.49 20.24V14.76H50.96C52.64 14.76 53.58 15.65 53.58 17.5C53.58 19.35 52.65 20.24 50.96 20.24H49.49ZM57.8759 21.16C59.2859 21.16 60.5659 20.1 60.5659 18.4C60.5659 16.74 59.2859 15.68 57.8759 15.68C56.4659 15.68 55.1859 16.74 55.1859 18.4C55.1859 20.1 56.4659 21.16 57.8759 21.16ZM57.8759 20.44C56.7759 20.44 56.0059 19.67 56.0059 18.4C56.0059 17.16 56.7759 16.4 57.8759 16.4C58.9759 16.4 59.7459 17.16 59.7459 18.4C59.7459 19.67 58.9759 20.44 57.8759 20.44ZM63.3572 21L64.6372 16.84H64.6772L65.9572 21H66.7372L68.6472 15.84H67.7972L67.1272 17.68C66.8472 18.46 66.6272 19.03 66.3272 19.94H66.2872C66.0172 19.02 65.8372 18.46 65.5972 17.67L65.0372 15.84H64.2772L63.7172 17.67C63.4772 18.46 63.2972 19.02 63.0272 19.94H62.9872C62.6872 19.03 62.4672 18.46 62.1872 17.68L61.5172 15.84H60.6672L62.5772 21H63.3572ZM71.9348 15.68C70.9648 15.68 70.2348 16.34 70.1048 17.34H70.0448L69.9948 15.84H69.2348V21H70.0448V18.34C70.0448 17.19 70.6748 16.42 71.6148 16.42C72.4448 16.42 72.9948 16.98 72.9948 17.83V21H73.7948V17.57C73.7948 16.44 73.0548 15.68 71.9348 15.68ZM74.9765 21H75.7765V14H74.9765V21ZM79.3994 21.16C80.8094 21.16 82.0894 20.1 82.0894 18.4C82.0894 16.74 80.8094 15.68 79.3994 15.68C77.9894 15.68 76.7094 16.74 76.7094 18.4C76.7094 20.1 77.9894 21.16 79.3994 21.16ZM79.3994 20.44C78.2994 20.44 77.5294 19.67 77.5294 18.4C77.5294 17.16 78.2994 16.4 79.3994 16.4C80.4994 16.4 81.2694 17.16 81.2694 18.4C81.2694 19.67 80.4994 20.44 79.3994 20.44ZM82.6457 19.73C82.6457 20.66 83.3657 21.16 84.4057 21.16C85.3657 21.16 86.3957 20.67 86.5457 19.28H86.5857L86.6257 21H87.3857V17.66C87.3857 16.59 86.8057 15.68 85.1157 15.68C83.5757 15.68 82.6557 16.67 82.6557 17.81H83.4557C83.5357 17.1 83.9957 16.38 85.0857 16.38C86.2357 16.38 86.5857 16.99 86.5857 17.44C86.5857 18.23 85.9057 18.26 84.6857 18.24C83.3357 18.22 82.6457 18.79 82.6457 19.73ZM83.4957 19.62C83.4957 19.12 83.8857 18.8 84.4957 18.78C86.0757 18.73 86.4457 18.5 86.5457 17.93H86.5857V18.71C86.5857 19.54 85.8257 20.48 84.6057 20.48C83.8257 20.48 83.4957 20.15 83.4957 19.62ZM92.5614 17.34H92.5214C92.3114 16.34 91.5514 15.68 90.6214 15.68C89.2214 15.68 88.2914 16.78 88.2914 18.43C88.2914 20.08 89.2214 21.18 90.6214 21.18C91.5514 21.18 92.3114 20.52 92.5214 19.52H92.5614L92.6014 21H93.3614V14H92.5614V17.34ZM90.8314 20.46C89.7914 20.46 89.1014 19.65 89.1014 18.43C89.1014 17.21 89.7914 16.4 90.8314 16.4C91.8714 16.4 92.5614 17.21 92.5614 18.17V18.69C92.5614 19.65 91.8714 20.46 90.8314 20.46ZM98.999 21.16C100.409 21.16 101.689 20.1 101.689 18.4C101.689 16.74 100.409 15.68 98.999 15.68C97.589 15.68 96.309 16.74 96.309 18.4C96.309 20.1 97.589 21.16 98.999 21.16ZM98.999 20.44C97.899 20.44 97.129 19.67 97.129 18.4C97.129 17.16 97.899 16.4 98.999 16.4C100.099 16.4 100.869 17.16 100.869 18.4C100.869 19.67 100.099 20.44 98.999 20.44ZM105.343 15.68C104.373 15.68 103.643 16.34 103.513 17.34H103.453L103.403 15.84H102.643V21H103.453V18.34C103.453 17.19 104.083 16.42 105.023 16.42C105.853 16.42 106.403 16.98 106.403 17.83V21H107.203V17.57C107.203 16.44 106.463 15.68 105.343 15.68ZM113.097 15.84H111.677L111.647 14.49H110.877V15.84H109.957V16.44H110.877V19.72C110.877 20.81 111.257 21.05 112.357 21.05C112.577 21.05 112.817 21.04 113.097 21.02V20.31C112.837 20.33 112.617 20.34 112.437 20.34C111.917 20.34 111.677 20.24 111.677 19.67V16.44H113.097V15.84ZM116.642 15.68C115.672 15.68 114.942 16.34 114.812 17.34H114.752V14H113.942V21H114.752V18.34C114.752 17.19 115.382 16.42 116.322 16.42C117.152 16.42 117.702 16.98 117.702 17.83V21H118.502V17.57C118.502 16.44 117.762 15.68 116.642 15.68ZM124.434 18.17C124.434 16.77 123.454 15.68 121.994 15.68C120.494 15.68 119.454 16.67 119.454 18.4C119.454 20.26 120.524 21.16 122.014 21.16C123.294 21.16 124.244 20.37 124.394 19.19H123.574C123.424 19.9 122.874 20.46 122.014 20.46C121.014 20.46 120.274 19.8 120.254 18.55H124.434V18.17ZM121.964 16.38C122.954 16.38 123.554 17.02 123.614 17.99H120.254C120.324 16.93 121.034 16.38 121.964 16.38ZM57.295 37L53.681 27.9H51.614L48.091 37H49.833L50.691 34.686H54.643L55.514 37H57.295ZM51.822 31.605C52.082 30.903 52.342 30.201 52.602 29.343H52.693C52.953 30.201 53.213 30.903 53.486 31.618L54.136 33.347H51.185L51.822 31.605ZM62.1027 30.084C60.9717 30.084 59.9837 30.812 59.6197 32.19H59.5677L59.5027 30.292H57.9817V39.392H59.5677V35.115H59.6197C59.9837 36.493 60.9717 37.208 62.1027 37.208C63.8057 37.208 65.0147 35.83 65.0147 33.659C65.0147 31.475 63.8057 30.084 62.1027 30.084ZM61.4787 36.038C60.3217 36.038 59.5677 35.167 59.5677 34.036V33.269C59.5677 32.138 60.3217 31.254 61.4787 31.254C62.6487 31.254 63.4157 32.164 63.4157 33.659C63.4157 35.141 62.6487 36.038 61.4787 36.038ZM70.1896 30.084C69.0586 30.084 68.0706 30.812 67.7066 32.19H67.6546L67.5896 30.292H66.0686V39.392H67.6546V35.115H67.7066C68.0706 36.493 69.0586 37.208 70.1896 37.208C71.8926 37.208 73.1016 35.83 73.1016 33.659C73.1016 31.475 71.8926 30.084 70.1896 30.084ZM69.5656 36.038C68.4086 36.038 67.6546 35.167 67.6546 34.036V33.269C67.6546 32.138 68.4086 31.254 69.5656 31.254C70.7356 31.254 71.5026 32.164 71.5026 33.659C71.5026 35.141 70.7356 36.038 69.5656 36.038ZM80.5513 37.208C82.9693 37.208 84.4513 36.155 84.4513 34.491C84.4513 33.035 83.5023 32.372 82.2803 32.086L79.8623 31.527C78.9393 31.306 78.4713 30.89 78.4713 30.331C78.4713 29.577 79.2383 29.109 80.4993 29.109C81.8643 29.109 82.6833 29.772 82.7093 30.864H84.3733C84.3473 28.875 82.9043 27.692 80.4993 27.705C78.1593 27.718 76.7553 28.706 76.7553 30.305C76.7553 31.618 77.6263 32.502 79.3033 32.866L81.6043 33.386C82.3323 33.555 82.7223 33.919 82.7223 34.465C82.7223 35.297 81.9033 35.804 80.5513 35.791C79.1343 35.791 78.2373 35.154 78.1853 34.075L76.5083 34.062C76.4823 36.012 78.0163 37.208 80.5513 37.208ZM89.4465 30.292H87.5485L87.4965 28.537H85.9885V30.292H84.8965V31.306H85.9885V35.206C85.9885 36.688 86.6645 37.065 88.1855 37.078C88.5625 37.078 88.9785 37.052 89.4465 37.013V35.765C89.1085 35.791 88.8355 35.804 88.5495 35.804C87.8085 35.804 87.5745 35.648 87.5745 34.972V31.306H89.4465V30.292ZM93.5932 37.208C95.5562 37.208 97.2072 35.83 97.2072 33.62C97.2072 31.462 95.5562 30.084 93.5932 30.084C91.6302 30.084 89.9922 31.462 89.9922 33.62C89.9922 35.83 91.6302 37.208 93.5932 37.208ZM93.5932 35.96C92.3842 35.96 91.5912 35.128 91.5912 33.62C91.5912 32.151 92.3842 31.332 93.5932 31.332C94.8152 31.332 95.6082 32.151 95.6082 33.62C95.6082 35.128 94.8152 35.96 93.5932 35.96ZM99.8499 32.853L99.7979 30.292H98.2639V37H99.8499V34.361C99.8889 32.32 100.669 31.657 102.762 31.527V30.188C100.89 30.188 100.201 30.903 99.9019 32.853H99.8499ZM109.688 33.425C109.688 31.579 108.427 30.084 106.373 30.084C104.306 30.084 102.941 31.436 102.941 33.62C102.941 35.986 104.332 37.208 106.451 37.208C107.946 37.208 109.428 36.311 109.636 34.66H108.193C108.024 35.414 107.387 35.973 106.451 35.973C105.307 35.973 104.501 35.245 104.462 33.945H109.688V33.425ZM106.308 31.319C107.361 31.319 108.05 31.969 108.128 33.048H104.462C104.54 31.904 105.32 31.319 106.308 31.319Z" fill="white"/>
<defs>
<clipPath id="clip0_2904_32">
<rect width="24" height="24" fill="white" transform="translate(16 12)"/>
</clipPath>
</defs>
</svg>
