<svg width="23" height="24" viewBox="0 0 23 24" fill="none" xmlns="http://www.w3.org/2000/svg">
<path d="M7.07107 16.4419C7.26623 16.637 7.58301 16.637 7.77817 16.4419L14.8314 9.38864L14.703 14.6619C14.6963 14.9377 14.9141 15.1671 15.1908 15.174C15.4669 15.1807 15.696 14.9626 15.7027 14.6865L15.8493 8.66386C15.8493 8.39657 15.7453 8.14555 15.5563 7.95657C15.3675 7.76778 15.1164 7.66365 14.837 7.66401L8.82664 7.81038C8.55051 7.8171 8.33254 8.04638 8.33908 8.32232C8.34545 8.59845 8.57491 8.81659 8.85103 8.80988L14.1356 8.67022L7.07107 15.7347C6.8759 15.9299 6.8759 16.2467 7.07107 16.4419Z" fill="#2D2D2D"/>
</svg>
