<svg width="144" height="48" viewBox="0 0 144 48" fill="none" xmlns="http://www.w3.org/2000/svg">
<rect width="144" height="48" rx="5" fill="#2D2D2D"/>
<g clip-path="url(#clip0_2904_41)">
<path d="M20.6696 12.3777C20.1229 12.0244 19.4662 11.9176 18.8502 12.063L29.6751 22.888L33.1835 19.3796L20.6696 12.3777Z" fill="white"/>
<path d="M17.5067 12.9429C17.2047 13.3443 17.031 13.8371 17.031 14.3584V33.6409C17.031 34.1622 17.2048 34.655 17.5067 35.0564L28.5634 23.9997L17.5067 12.9429Z" fill="white"/>
<path d="M37.7622 21.9415L34.6091 20.1772L30.7867 23.9996L34.6093 27.8222L37.7627 26.0578C38.5182 25.6345 38.9692 24.8652 38.9692 23.9996C38.9692 23.134 38.5182 22.3648 37.7622 21.9415Z" fill="white"/>
<path d="M29.675 25.1116L18.8507 35.9359C19.0282 35.9776 19.2088 36.0001 19.3894 36.0001C19.8358 36.0001 20.2806 35.8732 20.6696 35.6218L33.1836 28.62L29.675 25.1116Z" fill="white"/>
</g>
<path d="M50.96 14H48.65V21H50.96C53.09 21 54.44 19.84 54.44 17.5C54.44 15.21 53.11 14 50.96 14ZM49.49 20.24V14.76H50.96C52.64 14.76 53.58 15.65 53.58 17.5C53.58 19.35 52.65 20.24 50.96 20.24H49.49ZM57.8759 21.16C59.2859 21.16 60.5659 20.1 60.5659 18.4C60.5659 16.74 59.2859 15.68 57.8759 15.68C56.4659 15.68 55.1859 16.74 55.1859 18.4C55.1859 20.1 56.4659 21.16 57.8759 21.16ZM57.8759 20.44C56.7759 20.44 56.0059 19.67 56.0059 18.4C56.0059 17.16 56.7759 16.4 57.8759 16.4C58.9759 16.4 59.7459 17.16 59.7459 18.4C59.7459 19.67 58.9759 20.44 57.8759 20.44ZM63.3572 21L64.6372 16.84H64.6772L65.9572 21H66.7372L68.6472 15.84H67.7972L67.1272 17.68C66.8472 18.46 66.6272 19.03 66.3272 19.94H66.2872C66.0172 19.02 65.8372 18.46 65.5972 17.67L65.0372 15.84H64.2772L63.7172 17.67C63.4772 18.46 63.2972 19.02 63.0272 19.94H62.9872C62.6872 19.03 62.4672 18.46 62.1872 17.68L61.5172 15.84H60.6672L62.5772 21H63.3572ZM71.9348 15.68C70.9648 15.68 70.2348 16.34 70.1048 17.34H70.0448L69.9948 15.84H69.2348V21H70.0448V18.34C70.0448 17.19 70.6748 16.42 71.6148 16.42C72.4448 16.42 72.9948 16.98 72.9948 17.83V21H73.7948V17.57C73.7948 16.44 73.0548 15.68 71.9348 15.68ZM74.9765 21H75.7765V14H74.9765V21ZM79.3994 21.16C80.8094 21.16 82.0894 20.1 82.0894 18.4C82.0894 16.74 80.8094 15.68 79.3994 15.68C77.9894 15.68 76.7094 16.74 76.7094 18.4C76.7094 20.1 77.9894 21.16 79.3994 21.16ZM79.3994 20.44C78.2994 20.44 77.5294 19.67 77.5294 18.4C77.5294 17.16 78.2994 16.4 79.3994 16.4C80.4994 16.4 81.2694 17.16 81.2694 18.4C81.2694 19.67 80.4994 20.44 79.3994 20.44ZM82.6457 19.73C82.6457 20.66 83.3657 21.16 84.4057 21.16C85.3657 21.16 86.3957 20.67 86.5457 19.28H86.5857L86.6257 21H87.3857V17.66C87.3857 16.59 86.8057 15.68 85.1157 15.68C83.5757 15.68 82.6557 16.67 82.6557 17.81H83.4557C83.5357 17.1 83.9957 16.38 85.0857 16.38C86.2357 16.38 86.5857 16.99 86.5857 17.44C86.5857 18.23 85.9057 18.26 84.6857 18.24C83.3357 18.22 82.6457 18.79 82.6457 19.73ZM83.4957 19.62C83.4957 19.12 83.8857 18.8 84.4957 18.78C86.0757 18.73 86.4457 18.5 86.5457 17.93H86.5857V18.71C86.5857 19.54 85.8257 20.48 84.6057 20.48C83.8257 20.48 83.4957 20.15 83.4957 19.62ZM92.5614 17.34H92.5214C92.3114 16.34 91.5514 15.68 90.6214 15.68C89.2214 15.68 88.2914 16.78 88.2914 18.43C88.2914 20.08 89.2214 21.18 90.6214 21.18C91.5514 21.18 92.3114 20.52 92.5214 19.52H92.5614L92.6014 21H93.3614V14H92.5614V17.34ZM90.8314 20.46C89.7914 20.46 89.1014 19.65 89.1014 18.43C89.1014 17.21 89.7914 16.4 90.8314 16.4C91.8714 16.4 92.5614 17.21 92.5614 18.17V18.69C92.5614 19.65 91.8714 20.46 90.8314 20.46ZM98.999 21.16C100.409 21.16 101.689 20.1 101.689 18.4C101.689 16.74 100.409 15.68 98.999 15.68C97.589 15.68 96.309 16.74 96.309 18.4C96.309 20.1 97.589 21.16 98.999 21.16ZM98.999 20.44C97.899 20.44 97.129 19.67 97.129 18.4C97.129 17.16 97.899 16.4 98.999 16.4C100.099 16.4 100.869 17.16 100.869 18.4C100.869 19.67 100.099 20.44 98.999 20.44ZM105.343 15.68C104.373 15.68 103.643 16.34 103.513 17.34H103.453L103.403 15.84H102.643V21H103.453V18.34C103.453 17.19 104.083 16.42 105.023 16.42C105.853 16.42 106.403 16.98 106.403 17.83V21H107.203V17.57C107.203 16.44 106.463 15.68 105.343 15.68ZM113.097 15.84H111.677L111.647 14.49H110.877V15.84H109.957V16.44H110.877V19.72C110.877 20.81 111.257 21.05 112.357 21.05C112.577 21.05 112.817 21.04 113.097 21.02V20.31C112.837 20.33 112.617 20.34 112.437 20.34C111.917 20.34 111.677 20.24 111.677 19.67V16.44H113.097V15.84ZM116.642 15.68C115.672 15.68 114.942 16.34 114.812 17.34H114.752V14H113.942V21H114.752V18.34C114.752 17.19 115.382 16.42 116.322 16.42C117.152 16.42 117.702 16.98 117.702 17.83V21H118.502V17.57C118.502 16.44 117.762 15.68 116.642 15.68ZM124.434 18.17C124.434 16.77 123.454 15.68 121.994 15.68C120.494 15.68 119.454 16.67 119.454 18.4C119.454 20.26 120.524 21.16 122.014 21.16C123.294 21.16 124.244 20.37 124.394 19.19H123.574C123.424 19.9 122.874 20.46 122.014 20.46C121.014 20.46 120.274 19.8 120.254 18.55H124.434V18.17ZM121.964 16.38C122.954 16.38 123.554 17.02 123.614 17.99H120.254C120.324 16.93 121.034 16.38 121.964 16.38ZM55.813 34.933L55.917 37H57.386V32.216H52.524V33.49H55.787L55.774 33.646C55.722 34.777 54.682 35.817 53.135 35.817C51.029 35.817 50.119 34.413 50.119 32.45C50.119 30.539 50.99 29.083 52.979 29.083C54.396 29.07 55.254 29.941 55.462 31.098H57.217C56.97 29.2 55.514 27.692 52.979 27.692C49.95 27.692 48.377 29.72 48.377 32.45C48.377 35.297 50.015 37.208 52.537 37.208C54.396 37.208 55.345 36.194 55.722 34.933H55.813ZM62.0327 37.208C63.9957 37.208 65.6467 35.83 65.6467 33.62C65.6467 31.462 63.9957 30.084 62.0327 30.084C60.0697 30.084 58.4317 31.462 58.4317 33.62C58.4317 35.83 60.0697 37.208 62.0327 37.208ZM62.0327 35.96C60.8237 35.96 60.0307 35.128 60.0307 33.62C60.0307 32.151 60.8237 31.332 62.0327 31.332C63.2547 31.332 64.0477 32.151 64.0477 33.62C64.0477 35.128 63.2547 35.96 62.0327 35.96ZM70.0053 37.208C71.9683 37.208 73.6193 35.83 73.6193 33.62C73.6193 31.462 71.9683 30.084 70.0053 30.084C68.0423 30.084 66.4043 31.462 66.4043 33.62C66.4043 35.83 68.0423 37.208 70.0053 37.208ZM70.0053 35.96C68.7963 35.96 68.0033 35.128 68.0033 33.62C68.0033 32.151 68.7963 31.332 70.0053 31.332C71.2273 31.332 72.0203 32.151 72.0203 33.62C72.0203 35.128 71.2273 35.96 70.0053 35.96ZM81.1784 29.278C79.8004 29.564 78.5524 29.811 77.4084 30.006C75.3804 30.331 74.7174 31.137 74.7174 32.281C74.7174 33.243 75.2504 33.971 76.1994 34.309V34.361C75.2764 34.387 74.5614 34.738 74.5614 35.583C74.5614 36.207 75.0554 36.753 76.0694 36.844V36.909C75.0554 36.987 74.3144 37.338 74.3144 38.17C74.3144 39.158 75.2114 39.769 77.6814 39.769C79.9304 39.769 81.1264 39.054 81.1264 37.637C81.1264 36.142 80.1384 35.648 78.6044 35.635L76.7844 35.622C76.2514 35.622 75.9004 35.388 75.9004 35.024C75.9004 34.712 76.0824 34.517 76.4984 34.4C76.8234 34.491 77.2004 34.53 77.6034 34.53C79.4104 34.53 80.4894 33.646 80.4894 32.281C80.4894 31.254 79.8134 30.5 78.7864 30.227L78.8124 30.149L81.1784 30.526V29.278ZM78.9814 32.281C78.9814 32.905 78.5004 33.373 77.6034 33.373C76.7064 33.373 76.2124 32.905 76.2124 32.281C76.2124 31.696 76.7064 31.241 77.6034 31.241C78.5004 31.241 78.9814 31.696 78.9814 32.281ZM78.5394 36.857C79.3194 36.857 79.6574 37.117 79.6574 37.676C79.6574 38.261 79.1634 38.586 77.6944 38.586C76.2384 38.586 75.6924 38.248 75.6924 37.702C75.6924 37.26 76.0304 36.987 76.5374 36.857H78.5394ZM82.1025 37H83.6885V27.9H82.1025V37ZM91.4834 33.425C91.4834 31.579 90.2224 30.084 88.1684 30.084C86.1014 30.084 84.7364 31.436 84.7364 33.62C84.7364 35.986 86.1274 37.208 88.2464 37.208C89.7414 37.208 91.2234 36.311 91.4314 34.66H89.9884C89.8194 35.414 89.1824 35.973 88.2464 35.973C87.1024 35.973 86.2964 35.245 86.2574 33.945H91.4834V33.425ZM88.1034 31.319C89.1564 31.319 89.8454 31.969 89.9234 33.048H86.2574C86.3354 31.904 87.1154 31.319 88.1034 31.319ZM99.2845 27.9H95.3715V37H97.0615V33.737H99.2325C101.143 33.737 102.586 32.697 102.586 30.812C102.586 28.784 101.169 27.9 99.2845 27.9ZM97.0615 32.463V29.278H98.9335C100.038 29.278 100.883 29.694 100.883 30.864C100.883 32.008 100.038 32.463 98.9335 32.463H97.0615ZM103.494 37H105.08V27.9H103.494V37ZM106.063 35.349C106.063 36.597 107.038 37.208 108.338 37.208C109.69 37.208 110.834 36.467 111.003 34.868H111.068L111.133 37H112.628V32.697C112.628 31.28 111.757 30.084 109.482 30.084C107.285 30.084 106.167 31.41 106.115 32.918H107.688C107.766 32.034 108.325 31.319 109.482 31.319C110.678 31.319 111.068 31.943 111.068 32.45C111.068 33.217 110.444 33.438 108.767 33.412C106.921 33.386 106.063 34.179 106.063 35.349ZM107.688 35.206C107.688 34.66 108.078 34.335 108.702 34.309C110.444 34.218 110.873 33.867 111.003 33.074H111.068V34.101C111.068 35.102 110.145 36.103 108.884 36.116C108.078 36.116 107.688 35.778 107.688 35.206ZM116.407 35.518C115.991 34.075 115.549 32.762 115.224 31.787L114.73 30.292H113.014L115.497 36.974L115.38 37.221C114.964 38.144 114.613 38.274 113.3 38.196V39.47C115.484 39.6 116.472 39.21 117.265 37.143L119.904 30.292H118.227L117.733 31.748C117.395 32.762 116.927 34.062 116.472 35.518H116.407Z" fill="white"/>
<defs>
<clipPath id="clip0_2904_41">
<rect width="24" height="24" fill="white" transform="translate(16 12)"/>
</clipPath>
</defs>
</svg>
