<svg width="11" height="16" viewBox="0 0 11 16" fill="none" xmlns="http://www.w3.org/2000/svg">
<path fill-rule="evenodd" clip-rule="evenodd" d="M8.84696 6.44469H8.99999C9.82842 6.44469 10.5 7.11626 10.5 7.94469V14.2705C10.5 15.0989 9.82842 15.7705 8.99999 15.7705H2.28571C1.45728 15.7705 0.785706 15.0989 0.785706 14.2705V7.94469C0.785706 7.11627 1.45728 6.44469 2.28571 6.44469H2.43874V4.14906C2.43874 2.22745 3.87327 0.669678 5.64285 0.669678C7.41243 0.669678 8.84696 2.22745 8.84696 4.14906V6.44469ZM7.77892 6.44469V4.14906C7.77892 2.86798 6.82257 1.82947 5.64285 1.82947C4.46313 1.82947 3.50677 2.86798 3.50677 4.14906V6.44469H7.77892Z" fill="#00131F"/>
</svg>
